<mxfile host="app.diagrams.net" modified="2021-12-28T19:45:26.600Z" agent="5.0 (Windows NT 10.0; Win64; x64) AppleWebKit/537.36 (KHTML, like Gecko) Chrome/96.0.4664.110 Safari/537.36" etag="R57LiEPlsmcF4qge2ZFM" version="15.8.6" type="github">
  <diagram id="R2lEEEUBdFMjLlhIrx00" name="Page-1">
    <mxGraphModel dx="1487" dy="2388" grid="1" gridSize="10" guides="1" tooltips="1" connect="1" arrows="1" fold="1" page="1" pageScale="1" pageWidth="1200" pageHeight="1600" math="0" shadow="0" extFonts="Permanent Marker^https://fonts.googleapis.com/css?family=Permanent+Marker">
      <root>
        <mxCell id="0" />
        <mxCell id="1" parent="0" />
        <mxCell id="s2ZaCzxI1Ze2e7a40H7w-5" style="edgeStyle=orthogonalEdgeStyle;rounded=0;orthogonalLoop=1;jettySize=auto;html=1;entryX=0;entryY=0.5;entryDx=0;entryDy=0;" edge="1" parent="1" source="s2ZaCzxI1Ze2e7a40H7w-1" target="s2ZaCzxI1Ze2e7a40H7w-2">
          <mxGeometry relative="1" as="geometry" />
        </mxCell>
        <mxCell id="s2ZaCzxI1Ze2e7a40H7w-53" style="edgeStyle=orthogonalEdgeStyle;rounded=0;orthogonalLoop=1;jettySize=auto;html=1;exitX=0;exitY=0.75;exitDx=0;exitDy=0;fontColor=none;startArrow=none;startFill=0;endArrow=none;endFill=0;" edge="1" parent="1" source="s2ZaCzxI1Ze2e7a40H7w-1">
          <mxGeometry relative="1" as="geometry">
            <mxPoint x="140" y="240" as="targetPoint" />
          </mxGeometry>
        </mxCell>
        <mxCell id="s2ZaCzxI1Ze2e7a40H7w-1" value="Company" style="whiteSpace=wrap;html=1;aspect=fixed;" vertex="1" parent="1">
          <mxGeometry x="210" y="180" width="80" height="80" as="geometry" />
        </mxCell>
        <mxCell id="s2ZaCzxI1Ze2e7a40H7w-6" style="edgeStyle=orthogonalEdgeStyle;rounded=0;orthogonalLoop=1;jettySize=auto;html=1;entryX=0;entryY=0.5;entryDx=0;entryDy=0;endArrow=none;endFill=0;startArrow=classic;startFill=1;" edge="1" parent="1" source="s2ZaCzxI1Ze2e7a40H7w-2" target="s2ZaCzxI1Ze2e7a40H7w-4">
          <mxGeometry relative="1" as="geometry" />
        </mxCell>
        <mxCell id="s2ZaCzxI1Ze2e7a40H7w-2" value="has" style="rhombus;whiteSpace=wrap;html=1;" vertex="1" parent="1">
          <mxGeometry x="420" y="180" width="80" height="80" as="geometry" />
        </mxCell>
        <mxCell id="s2ZaCzxI1Ze2e7a40H7w-3" value="&lt;u&gt;AttributeID&lt;/u&gt;" style="ellipse;whiteSpace=wrap;html=1;aspect=fixed;" vertex="1" parent="1">
          <mxGeometry x="760" y="480" width="80" height="80" as="geometry" />
        </mxCell>
        <mxCell id="s2ZaCzxI1Ze2e7a40H7w-7" style="edgeStyle=orthogonalEdgeStyle;rounded=0;orthogonalLoop=1;jettySize=auto;html=1;entryX=0.5;entryY=0;entryDx=0;entryDy=0;" edge="1" parent="1" source="s2ZaCzxI1Ze2e7a40H7w-4" target="s2ZaCzxI1Ze2e7a40H7w-8">
          <mxGeometry relative="1" as="geometry">
            <mxPoint x="660" y="340" as="targetPoint" />
          </mxGeometry>
        </mxCell>
        <mxCell id="s2ZaCzxI1Ze2e7a40H7w-28" value="" style="edgeStyle=orthogonalEdgeStyle;rounded=0;orthogonalLoop=1;jettySize=auto;html=1;fontColor=none;endArrow=classic;endFill=1;" edge="1" parent="1" source="s2ZaCzxI1Ze2e7a40H7w-4" target="s2ZaCzxI1Ze2e7a40H7w-27">
          <mxGeometry relative="1" as="geometry" />
        </mxCell>
        <mxCell id="s2ZaCzxI1Ze2e7a40H7w-31" style="edgeStyle=orthogonalEdgeStyle;rounded=0;orthogonalLoop=1;jettySize=auto;html=1;exitX=0.75;exitY=1;exitDx=0;exitDy=0;fontColor=none;endArrow=none;endFill=0;entryX=0.048;entryY=0.317;entryDx=0;entryDy=0;entryPerimeter=0;" edge="1" parent="1" source="s2ZaCzxI1Ze2e7a40H7w-4" target="s2ZaCzxI1Ze2e7a40H7w-12">
          <mxGeometry relative="1" as="geometry">
            <mxPoint x="750" y="410" as="targetPoint" />
            <Array as="points">
              <mxPoint x="680" y="250" />
              <mxPoint x="720" y="250" />
              <mxPoint x="720" y="375" />
            </Array>
          </mxGeometry>
        </mxCell>
        <mxCell id="s2ZaCzxI1Ze2e7a40H7w-34" style="edgeStyle=orthogonalEdgeStyle;rounded=0;orthogonalLoop=1;jettySize=auto;html=1;exitX=0;exitY=0;exitDx=0;exitDy=0;entryX=1;entryY=1;entryDx=0;entryDy=0;fontColor=none;startArrow=none;startFill=0;endArrow=classic;endFill=1;" edge="1" parent="1" source="s2ZaCzxI1Ze2e7a40H7w-4" target="s2ZaCzxI1Ze2e7a40H7w-32">
          <mxGeometry relative="1" as="geometry">
            <Array as="points">
              <mxPoint x="620" y="190" />
              <mxPoint x="600" y="190" />
              <mxPoint x="600" y="150" />
              <mxPoint x="520" y="150" />
            </Array>
          </mxGeometry>
        </mxCell>
        <mxCell id="s2ZaCzxI1Ze2e7a40H7w-44" style="edgeStyle=orthogonalEdgeStyle;rounded=0;orthogonalLoop=1;jettySize=auto;html=1;exitX=1;exitY=0.75;exitDx=0;exitDy=0;fontColor=none;startArrow=none;startFill=0;endArrow=none;endFill=0;entryX=0;entryY=0;entryDx=0;entryDy=0;" edge="1" parent="1" source="s2ZaCzxI1Ze2e7a40H7w-4" target="s2ZaCzxI1Ze2e7a40H7w-11">
          <mxGeometry relative="1" as="geometry">
            <mxPoint x="910" y="300" as="targetPoint" />
            <Array as="points">
              <mxPoint x="760" y="240" />
              <mxPoint x="760" y="280" />
              <mxPoint x="910" y="280" />
              <mxPoint x="910" y="312" />
            </Array>
          </mxGeometry>
        </mxCell>
        <mxCell id="s2ZaCzxI1Ze2e7a40H7w-4" value="Integration" style="whiteSpace=wrap;html=1;aspect=fixed;" vertex="1" parent="1">
          <mxGeometry x="620" y="180" width="80" height="80" as="geometry" />
        </mxCell>
        <mxCell id="s2ZaCzxI1Ze2e7a40H7w-22" style="edgeStyle=orthogonalEdgeStyle;rounded=0;orthogonalLoop=1;jettySize=auto;html=1;entryX=0.5;entryY=0;entryDx=0;entryDy=0;fontColor=none;endArrow=none;endFill=0;" edge="1" parent="1" source="s2ZaCzxI1Ze2e7a40H7w-8" target="s2ZaCzxI1Ze2e7a40H7w-21">
          <mxGeometry relative="1" as="geometry" />
        </mxCell>
        <mxCell id="s2ZaCzxI1Ze2e7a40H7w-8" value="has" style="rhombus;whiteSpace=wrap;html=1;" vertex="1" parent="1">
          <mxGeometry x="620" y="350" width="80" height="80" as="geometry" />
        </mxCell>
        <mxCell id="s2ZaCzxI1Ze2e7a40H7w-10" value="&lt;u&gt;IntegratorID&lt;/u&gt;" style="ellipse;whiteSpace=wrap;html=1;aspect=fixed;" vertex="1" parent="1">
          <mxGeometry x="60" y="-20" width="80" height="80" as="geometry" />
        </mxCell>
        <mxCell id="s2ZaCzxI1Ze2e7a40H7w-11" value="Integration Priority" style="ellipse;whiteSpace=wrap;html=1;aspect=fixed;" vertex="1" parent="1">
          <mxGeometry x="910" y="300" width="80" height="80" as="geometry" />
        </mxCell>
        <mxCell id="s2ZaCzxI1Ze2e7a40H7w-12" value="Integration Date" style="ellipse;whiteSpace=wrap;html=1;aspect=fixed;" vertex="1" parent="1">
          <mxGeometry x="810" y="350" width="80" height="80" as="geometry" />
        </mxCell>
        <mxCell id="s2ZaCzxI1Ze2e7a40H7w-13" value="&lt;u&gt;InputID&lt;/u&gt;" style="ellipse;whiteSpace=wrap;html=1;aspect=fixed;" vertex="1" parent="1">
          <mxGeometry x="160" y="480" width="80" height="80" as="geometry" />
        </mxCell>
        <mxCell id="s2ZaCzxI1Ze2e7a40H7w-15" value="" style="edgeStyle=orthogonalEdgeStyle;rounded=0;orthogonalLoop=1;jettySize=auto;html=1;endArrow=none;endFill=0;" edge="1" parent="1" source="s2ZaCzxI1Ze2e7a40H7w-14" target="s2ZaCzxI1Ze2e7a40H7w-1">
          <mxGeometry relative="1" as="geometry" />
        </mxCell>
        <mxCell id="s2ZaCzxI1Ze2e7a40H7w-14" value="&lt;u&gt;CompanyID&lt;/u&gt;" style="ellipse;whiteSpace=wrap;html=1;aspect=fixed;" vertex="1" parent="1">
          <mxGeometry x="210" y="290" width="80" height="80" as="geometry" />
        </mxCell>
        <mxCell id="s2ZaCzxI1Ze2e7a40H7w-17" style="edgeStyle=orthogonalEdgeStyle;rounded=0;orthogonalLoop=1;jettySize=auto;html=1;entryX=0.5;entryY=0;entryDx=0;entryDy=0;fontColor=none;endArrow=none;endFill=0;" edge="1" parent="1" source="s2ZaCzxI1Ze2e7a40H7w-16" target="s2ZaCzxI1Ze2e7a40H7w-4">
          <mxGeometry relative="1" as="geometry" />
        </mxCell>
        <mxCell id="s2ZaCzxI1Ze2e7a40H7w-16" value="&lt;u&gt;IntegrationID&lt;/u&gt;" style="ellipse;whiteSpace=wrap;html=1;aspect=fixed;" vertex="1" parent="1">
          <mxGeometry x="730" y="60" width="80" height="80" as="geometry" />
        </mxCell>
        <mxCell id="s2ZaCzxI1Ze2e7a40H7w-20" style="edgeStyle=orthogonalEdgeStyle;rounded=0;orthogonalLoop=1;jettySize=auto;html=1;entryX=1;entryY=0.5;entryDx=0;entryDy=0;fontColor=none;endArrow=none;endFill=0;" edge="1" parent="1" source="s2ZaCzxI1Ze2e7a40H7w-18" target="s2ZaCzxI1Ze2e7a40H7w-13">
          <mxGeometry relative="1" as="geometry" />
        </mxCell>
        <mxCell id="s2ZaCzxI1Ze2e7a40H7w-38" style="edgeStyle=orthogonalEdgeStyle;rounded=0;orthogonalLoop=1;jettySize=auto;html=1;fontColor=none;startArrow=none;startFill=0;endArrow=none;endFill=0;entryX=0.5;entryY=0;entryDx=0;entryDy=0;" edge="1" parent="1" source="s2ZaCzxI1Ze2e7a40H7w-18" target="s2ZaCzxI1Ze2e7a40H7w-39">
          <mxGeometry relative="1" as="geometry">
            <mxPoint x="380" y="650" as="targetPoint" />
          </mxGeometry>
        </mxCell>
        <mxCell id="s2ZaCzxI1Ze2e7a40H7w-42" style="edgeStyle=orthogonalEdgeStyle;rounded=0;orthogonalLoop=1;jettySize=auto;html=1;exitX=0;exitY=1;exitDx=0;exitDy=0;entryX=0.5;entryY=0;entryDx=0;entryDy=0;fontColor=none;startArrow=none;startFill=0;endArrow=none;endFill=0;" edge="1" parent="1" source="s2ZaCzxI1Ze2e7a40H7w-18" target="s2ZaCzxI1Ze2e7a40H7w-40">
          <mxGeometry relative="1" as="geometry">
            <Array as="points">
              <mxPoint x="340" y="550" />
              <mxPoint x="320" y="550" />
              <mxPoint x="320" y="600" />
              <mxPoint x="220" y="600" />
            </Array>
          </mxGeometry>
        </mxCell>
        <mxCell id="s2ZaCzxI1Ze2e7a40H7w-18" value="Integration Input&lt;br&gt;" style="whiteSpace=wrap;html=1;aspect=fixed;fontColor=none;" vertex="1" parent="1">
          <mxGeometry x="340" y="480" width="80" height="80" as="geometry" />
        </mxCell>
        <mxCell id="s2ZaCzxI1Ze2e7a40H7w-24" style="edgeStyle=orthogonalEdgeStyle;rounded=0;orthogonalLoop=1;jettySize=auto;html=1;entryX=1;entryY=0.5;entryDx=0;entryDy=0;fontColor=none;endArrow=classic;endFill=1;" edge="1" parent="1" source="s2ZaCzxI1Ze2e7a40H7w-21" target="s2ZaCzxI1Ze2e7a40H7w-23">
          <mxGeometry relative="1" as="geometry" />
        </mxCell>
        <mxCell id="s2ZaCzxI1Ze2e7a40H7w-26" style="edgeStyle=orthogonalEdgeStyle;rounded=0;orthogonalLoop=1;jettySize=auto;html=1;fontColor=none;endArrow=classic;endFill=1;entryX=0;entryY=0.5;entryDx=0;entryDy=0;" edge="1" parent="1" source="s2ZaCzxI1Ze2e7a40H7w-21" target="s2ZaCzxI1Ze2e7a40H7w-3">
          <mxGeometry relative="1" as="geometry">
            <mxPoint x="750" y="520" as="targetPoint" />
          </mxGeometry>
        </mxCell>
        <mxCell id="s2ZaCzxI1Ze2e7a40H7w-43" style="edgeStyle=orthogonalEdgeStyle;rounded=0;orthogonalLoop=1;jettySize=auto;html=1;entryX=0.5;entryY=0;entryDx=0;entryDy=0;fontColor=none;startArrow=none;startFill=0;endArrow=none;endFill=0;" edge="1" parent="1" source="s2ZaCzxI1Ze2e7a40H7w-21" target="s2ZaCzxI1Ze2e7a40H7w-41">
          <mxGeometry relative="1" as="geometry" />
        </mxCell>
        <mxCell id="s2ZaCzxI1Ze2e7a40H7w-21" value="Attribute" style="whiteSpace=wrap;html=1;aspect=fixed;fontColor=none;" vertex="1" parent="1">
          <mxGeometry x="620" y="480" width="80" height="80" as="geometry" />
        </mxCell>
        <mxCell id="s2ZaCzxI1Ze2e7a40H7w-25" style="edgeStyle=orthogonalEdgeStyle;rounded=0;orthogonalLoop=1;jettySize=auto;html=1;entryX=1;entryY=0.5;entryDx=0;entryDy=0;fontColor=none;endArrow=classic;endFill=1;" edge="1" parent="1" source="s2ZaCzxI1Ze2e7a40H7w-23" target="s2ZaCzxI1Ze2e7a40H7w-18">
          <mxGeometry relative="1" as="geometry" />
        </mxCell>
        <mxCell id="s2ZaCzxI1Ze2e7a40H7w-23" value="has" style="rhombus;whiteSpace=wrap;html=1;" vertex="1" parent="1">
          <mxGeometry x="480" y="480" width="80" height="80" as="geometry" />
        </mxCell>
        <mxCell id="s2ZaCzxI1Ze2e7a40H7w-27" value="integration Name" style="ellipse;whiteSpace=wrap;html=1;" vertex="1" parent="1">
          <mxGeometry x="760" y="190" width="80" height="60" as="geometry" />
        </mxCell>
        <mxCell id="s2ZaCzxI1Ze2e7a40H7w-36" style="edgeStyle=orthogonalEdgeStyle;rounded=0;orthogonalLoop=1;jettySize=auto;html=1;entryX=1;entryY=0.5;entryDx=0;entryDy=0;fontColor=none;startArrow=classic;startFill=1;endArrow=none;endFill=0;" edge="1" parent="1" source="s2ZaCzxI1Ze2e7a40H7w-32" target="s2ZaCzxI1Ze2e7a40H7w-35">
          <mxGeometry relative="1" as="geometry" />
        </mxCell>
        <mxCell id="s2ZaCzxI1Ze2e7a40H7w-32" value="has" style="rhombus;whiteSpace=wrap;html=1;" vertex="1" parent="1">
          <mxGeometry x="460" y="40" width="80" height="80" as="geometry" />
        </mxCell>
        <mxCell id="s2ZaCzxI1Ze2e7a40H7w-37" style="edgeStyle=orthogonalEdgeStyle;rounded=0;orthogonalLoop=1;jettySize=auto;html=1;entryX=1;entryY=0.5;entryDx=0;entryDy=0;fontColor=none;startArrow=none;startFill=0;endArrow=none;endFill=0;" edge="1" parent="1" source="s2ZaCzxI1Ze2e7a40H7w-35" target="s2ZaCzxI1Ze2e7a40H7w-10">
          <mxGeometry relative="1" as="geometry" />
        </mxCell>
        <mxCell id="s2ZaCzxI1Ze2e7a40H7w-35" value="Integrator" style="whiteSpace=wrap;html=1;aspect=fixed;" vertex="1" parent="1">
          <mxGeometry x="290" y="20" width="80" height="80" as="geometry" />
        </mxCell>
        <mxCell id="s2ZaCzxI1Ze2e7a40H7w-39" value="Integration API Endpoint" style="ellipse;whiteSpace=wrap;html=1;aspect=fixed;" vertex="1" parent="1">
          <mxGeometry x="340" y="640" width="80" height="80" as="geometry" />
        </mxCell>
        <mxCell id="s2ZaCzxI1Ze2e7a40H7w-40" value="Input Name" style="ellipse;whiteSpace=wrap;html=1;aspect=fixed;" vertex="1" parent="1">
          <mxGeometry x="180" y="640" width="80" height="80" as="geometry" />
        </mxCell>
        <mxCell id="s2ZaCzxI1Ze2e7a40H7w-41" value="Attribute Name" style="ellipse;whiteSpace=wrap;html=1;aspect=fixed;" vertex="1" parent="1">
          <mxGeometry x="620" y="620" width="80" height="80" as="geometry" />
        </mxCell>
        <mxCell id="s2ZaCzxI1Ze2e7a40H7w-50" style="edgeStyle=orthogonalEdgeStyle;rounded=0;orthogonalLoop=1;jettySize=auto;html=1;entryX=0.5;entryY=0;entryDx=0;entryDy=0;fontColor=none;startArrow=none;startFill=0;endArrow=none;endFill=0;" edge="1" parent="1" source="s2ZaCzxI1Ze2e7a40H7w-46" target="s2ZaCzxI1Ze2e7a40H7w-35">
          <mxGeometry relative="1" as="geometry" />
        </mxCell>
        <mxCell id="s2ZaCzxI1Ze2e7a40H7w-46" value="Integrator Name&lt;br&gt;" style="ellipse;whiteSpace=wrap;html=1;aspect=fixed;fontColor=none;" vertex="1" parent="1">
          <mxGeometry x="440" y="-100" width="80" height="80" as="geometry" />
        </mxCell>
        <mxCell id="s2ZaCzxI1Ze2e7a40H7w-52" style="edgeStyle=orthogonalEdgeStyle;rounded=0;orthogonalLoop=1;jettySize=auto;html=1;fontColor=none;startArrow=none;startFill=0;endArrow=none;endFill=0;" edge="1" parent="1" source="s2ZaCzxI1Ze2e7a40H7w-47">
          <mxGeometry relative="1" as="geometry">
            <mxPoint x="140" y="240" as="targetPoint" />
          </mxGeometry>
        </mxCell>
        <mxCell id="s2ZaCzxI1Ze2e7a40H7w-47" value="Company Email" style="ellipse;whiteSpace=wrap;html=1;aspect=fixed;fontColor=none;" vertex="1" parent="1">
          <mxGeometry y="280" width="80" height="80" as="geometry" />
        </mxCell>
        <mxCell id="s2ZaCzxI1Ze2e7a40H7w-51" style="edgeStyle=orthogonalEdgeStyle;rounded=0;orthogonalLoop=1;jettySize=auto;html=1;entryX=0;entryY=0.5;entryDx=0;entryDy=0;fontColor=none;startArrow=none;startFill=0;endArrow=none;endFill=0;" edge="1" parent="1" source="s2ZaCzxI1Ze2e7a40H7w-48" target="s2ZaCzxI1Ze2e7a40H7w-1">
          <mxGeometry relative="1" as="geometry" />
        </mxCell>
        <mxCell id="s2ZaCzxI1Ze2e7a40H7w-48" value="Company Name" style="ellipse;whiteSpace=wrap;html=1;aspect=fixed;fontColor=none;" vertex="1" parent="1">
          <mxGeometry x="40" y="160" width="80" height="80" as="geometry" />
        </mxCell>
        <mxCell id="s2ZaCzxI1Ze2e7a40H7w-55" style="edgeStyle=orthogonalEdgeStyle;rounded=0;orthogonalLoop=1;jettySize=auto;html=1;entryX=0;entryY=1;entryDx=0;entryDy=0;fontColor=none;startArrow=none;startFill=0;endArrow=none;endFill=0;" edge="1" parent="1" source="s2ZaCzxI1Ze2e7a40H7w-54" target="s2ZaCzxI1Ze2e7a40H7w-1">
          <mxGeometry relative="1" as="geometry">
            <Array as="points">
              <mxPoint x="180" y="390" />
              <mxPoint x="180" y="250" />
              <mxPoint x="210" y="250" />
            </Array>
          </mxGeometry>
        </mxCell>
        <mxCell id="s2ZaCzxI1Ze2e7a40H7w-54" value="Company Password" style="ellipse;whiteSpace=wrap;html=1;aspect=fixed;fontColor=none;" vertex="1" parent="1">
          <mxGeometry x="50" y="350" width="80" height="80" as="geometry" />
        </mxCell>
        <mxCell id="s2ZaCzxI1Ze2e7a40H7w-58" style="edgeStyle=orthogonalEdgeStyle;rounded=0;orthogonalLoop=1;jettySize=auto;html=1;entryX=0.25;entryY=0;entryDx=0;entryDy=0;fontColor=none;startArrow=none;startFill=0;endArrow=none;endFill=0;" edge="1" parent="1" source="s2ZaCzxI1Ze2e7a40H7w-56" target="s2ZaCzxI1Ze2e7a40H7w-35">
          <mxGeometry relative="1" as="geometry" />
        </mxCell>
        <mxCell id="s2ZaCzxI1Ze2e7a40H7w-56" value="Integrator Email" style="ellipse;whiteSpace=wrap;html=1;aspect=fixed;fontColor=none;" vertex="1" parent="1">
          <mxGeometry x="100" y="-170" width="80" height="80" as="geometry" />
        </mxCell>
        <mxCell id="s2ZaCzxI1Ze2e7a40H7w-59" style="edgeStyle=orthogonalEdgeStyle;rounded=0;orthogonalLoop=1;jettySize=auto;html=1;entryX=0;entryY=0.25;entryDx=0;entryDy=0;fontColor=none;startArrow=none;startFill=0;endArrow=none;endFill=0;" edge="1" parent="1" source="s2ZaCzxI1Ze2e7a40H7w-57" target="s2ZaCzxI1Ze2e7a40H7w-35">
          <mxGeometry relative="1" as="geometry" />
        </mxCell>
        <mxCell id="s2ZaCzxI1Ze2e7a40H7w-57" value="Integrator Password" style="ellipse;whiteSpace=wrap;html=1;aspect=fixed;fontColor=none;" vertex="1" parent="1">
          <mxGeometry x="150" y="-100" width="80" height="80" as="geometry" />
        </mxCell>
        <mxCell id="s2ZaCzxI1Ze2e7a40H7w-62" style="edgeStyle=orthogonalEdgeStyle;rounded=0;orthogonalLoop=1;jettySize=auto;html=1;entryX=1;entryY=0.75;entryDx=0;entryDy=0;fontColor=none;startArrow=none;startFill=0;endArrow=none;endFill=0;" edge="1" parent="1" source="s2ZaCzxI1Ze2e7a40H7w-61" target="s2ZaCzxI1Ze2e7a40H7w-18">
          <mxGeometry relative="1" as="geometry" />
        </mxCell>
        <mxCell id="s2ZaCzxI1Ze2e7a40H7w-61" value="Company API Endpoint" style="ellipse;whiteSpace=wrap;html=1;aspect=fixed;" vertex="1" parent="1">
          <mxGeometry x="480" y="620" width="80" height="80" as="geometry" />
        </mxCell>
      </root>
    </mxGraphModel>
  </diagram>
</mxfile>
